<svg xmlns="http://www.w3.org/2000/svg" viewBox="0 0 513.4 142.1"><g id="Warstwa_2" data-name="Warstwa 2"><g id="Warstwa_2-2" data-name="Warstwa 2"><path d="M495,142l-4.25,0h-3.55l-5.67,0h-12L443.17,142h-6.36l-12.72,0c-.82,0-1.64-.13-2.46-.13q-35.25,0-70.49,0c-1.05,0-2.1.16-3.15.24l-2.55-.12c-1.3,0-2.59-.13-3.89-.13H0c.26-2.71-.49-5.13.69-7.81H322.06c7.79,0,15.58-.08,23.38-.12l2.5-.13c1.29.09,2.57.24,3.86.25h64.48c2.13,0,4.25-.05,6.37-.08l2.14,0h12l4.29,0c1-.13,4.78.09,5.09.09q9.53,0,19-.13a67.11,67.11,0,0,1,7.07,0h8.48l14.22,0,3.52,0h7.78l2.11,0,4.71.28v7.53l-6.84.28-2.1.05H500l-2.85,0Z"/><path d="M155.35,72.51c.53,1,1.1,2.19,1.7,3.37,3.42,2.51,7.34,3.23,11.47,3.64,6.34.64,12.69.45,19,.74a55.07,55.07,0,0,1,10.71,1.43c5.57,1.39,10.65,4,13.42,9.32a18.59,18.59,0,0,1,2.06,12.11c-1.71,9.72-8.13,14.8-16.59,18.2-7.6,3.06-15.6,3.23-23.53,2.63a49.35,49.35,0,0,1-19.7-5.45c-2.66-1.42-5.5-2.49-8.37-3.76l-2.5,1.84-3.68-2.1c3.15-5.28,6.13-10.26,9.29-15.57l4.53,2.19-1.53,3.45c3.34,2.75,7.18,4.44,11,6.09,7.44,3.18,15.29,3.27,23.14,2.74a19.3,19.3,0,0,0,9.58-2.93,20.27,20.27,0,0,0,5.52-4.83,8.15,8.15,0,0,0-4.13-12.43c-2.65-1-5.65-1.25-8.52-1.63-1.74-.23-3.54,0-5.31-.09-5.16-.22-10.33-.29-15.47-.79A42.67,42.67,0,0,1,155,87.75c-5.46-2.3-9.44-6.3-10.7-12.13-1.31-6.05-.29-11.8,4.1-16.69,4.68-5.22,10.71-7.83,17.33-9.19a54.75,54.75,0,0,1,12.84-1.47A66.05,66.05,0,0,1,201.66,53c1.82.75,3.65,1.49,5.62,2.28.59-.67,1.18-1.36,2-2.33l4.29,2.09c-3,5.41-5.94,10.58-9,16l-4.08-1.92c.24-1.16.47-2.26.72-3.49-.64-1.37-2.1-1.92-3.49-2.53a55.77,55.77,0,0,0-12.67-3.65,47.3,47.3,0,0,0-10.87-.51c-5,.29-9.95,1.38-14.18,4.26C156.92,65.33,154.8,68.24,155.35,72.51Z"/><path d="M345.38,109.46c-2.63-4.24-5.33-8.42-6.61-13.37A40.65,40.65,0,0,1,338,79.8C339,73.49,342,68.2,345.37,63a5.25,5.25,0,0,0,2.79-3.41,11.57,11.57,0,0,0,2.09-1.11,37,37,0,0,1,12-7c4.32-1.43,8.8-2,13.27-2.76,5.48-1,10.78-.2,16.06.46a45.58,45.58,0,0,1,11.28,3.43,36.79,36.79,0,0,1,12.55,8.84,34.69,34.69,0,0,1,7.21,11.91,12,12,0,0,0,1.27,2,25.25,25.25,0,0,0,.2,3.15,42.39,42.39,0,0,1-.88,20l-2.08,4.86a13.24,13.24,0,0,0-1.34,1.57,37.32,37.32,0,0,1-10.66,11.41c-7.58,5.13-16,7.16-25,7.66a51.5,51.5,0,0,1-11.55-.54,54.91,54.91,0,0,1-13-3.56c-4.22-1.83-7.68-4.77-11.49-7.19A4.87,4.87,0,0,0,345.38,109.46Zm35.89,4a34.14,34.14,0,0,0,14.22-2.12,26.57,26.57,0,0,0,10.84-6.92c6.36-7,7.95-15.46,6.21-24.42-1.27-6.53-5.17-11.62-10.62-15.57-5.24-3.78-11.2-5.06-17.4-5.51a44.92,44.92,0,0,0-11.21.55,30.65,30.65,0,0,0-15.61,7.24c-7.39,6.68-9.33,15.33-8,24.68,1.2,8.25,6.17,14.25,13.44,18.23A32.58,32.58,0,0,0,381.27,113.48Z"/><path d="M225.41,55.35l-2.66-1.16V49.84h17.48v4.3l-2.58,1.3V80h44.4V56.11l-3.23-2.22V50.1c2.7-.54,13.79-.63,18.08-.14v3.91l-3.15,1.48V117l3.17,1.48v4H278.85v-4l3-1.41c.61-3.93.48-24.11-.14-26.5-2.59-.67-35-.91-43.75-.33a1.43,1.43,0,0,0-.26.23.53.53,0,0,0-.13.3c0,8.74,0,17.48,0,26.4l2.71,1.3v4H222.76c0-.69-.1-1.36-.13-2s0-1.16,0-1.82l2.78-1.75Z"/><path d="M345.47,18.22l1.91,0c.82,0,1.64.14,2.46.15h85.27c.82,0,1.64-.1,2.46-.15l9.2-.06,4.18,0,2.16.06,7.84,0,5.65,0h12.15c1.82,0,7.77.15,8.92.16q12.81.06,25.62.07c0,.7.08,1.4.11,2.1l-.23,5.6-3.3.11h-2.13l-6.38,0-24.82,0h-1.42l-4.21.19-1.38-.07-22.79-.08H434c-.47,0-.94-.08-1.41-.08q-40.92,0-81.84,0c-.94,0-1.87.14-2.81.22l-2.54-.14c-1.18,0-2.35-.09-3.53-.09H240.11c1.43-2.9,2.64-5.33,3.87-7.82H341.6C342.89,18.4,344.18,18.28,345.47,18.22Z"/><path d="M91,55.13l-2.29-.91V49.87H109v3.79l-2,1.59a7.4,7.4,0,0,0,.34,2c1.69,3.72,3.45,7.4,5.19,11.1Q118.76,81.62,125,94.92c3.34,7.19,6.64,14.39,10,21.64l4.46,1.82v4.18h-20v-4l2.74-1.35c-1.21-4.83-4.23-8.91-5.82-13.56H80.69q-3.16,6.69-6.41,13.53l2.9,1.42v3.67c-.07.06-.15.15-.24.22s-.19.2-.28.2H58.49a8.47,8.47,0,0,1-.16-4.32c3.61-.43,4.85-3.3,6.14-6q8.64-18.37,17.21-36.79,4.21-9,8.39-18.09C90.36,56.78,90.6,56.13,91,55.13ZM111.6,93.36c-1.3-3.51-2.88-6.58-4.25-9.72s-2.68-6.2-4.26-9.18-2.45-6.43-4.51-9.39c-3,4.79-12.21,25.18-12.72,28.29Z"/><path d="M151.86,21.89,135.66,2.58a7.37,7.37,0,0,0-2.36.72c-4.77,3.74-9.48,7.56-14.4,11.51l18.93,21.27c-3.1.29-5.73.11-8.35.15s-5.19,0-7.95,0L109.35,22.4,107,24.46V36.09a58.49,58.49,0,0,1-6.72.14c-2.1,0-4.2,0-6.64,0V18c0-3.08-.11-6.15,0-9.22.12-2.86-.61-5.81.49-8.61h12.86V9.52c5.08-2.64,8.27-7,12.63-9.51h30.44l8.11,10.1,8-10.11h16.72l-18.5,21.59V36.05H151.86Z"/><path d="M.13,122.45v-3.87l3.2-1.52V55.38L.18,53.91V49.76H60.74l2-3.49h3.46c.57,2.85.63,12.91.1,16.67H62.47L61,59.76H15.31c-.53,2.67-.64,15.05-.18,20.21H45.7l1.81-3.16H51.3c.8,2.82.31,5.65.39,8.41s0,5.38,0,8.21H47.33l-2-3.21H15.06V117l3.15,1.49v3.8C15.78,122.85,5.2,123,.13,122.45Z"/><path d="M324.16,117l2.59,1.53v4c-2.84.54-5.76.18-8.66.24s-5.65,0-8.55,0c-.76-1.53-.2-3-.44-4.45l2.8-1.23V55.46l-2.64-1.31V49.9c2.9-.47,5.83-.16,8.73-.22s5.64,0,8.7,0v4.52l-2.53,1.19Z"/><path d="M230.35,36.11H218.07c-5.47-12-11.58-23.6-17-35.93h14.35c2.87,6.5,5.78,13.05,8.91,20.12,3.22-7.1,6.19-13.62,9.15-20.13h14.18c-1,2.25-1.75,4.27-2.7,6.21-4.17,8.49-8.39,16.94-12.58,25.41C231.67,33.14,231.08,34.52,230.35,36.11Z"/><path d="M89.23,18.6v7.19c-2.82.57-81.07.8-89,.26C-.2,23.68.12,21.26.05,18.89,2.94,18.28,81.25,18,89.23,18.6Z"/><path d="M185.22.1h12.4v36c-4.06.23-8.13,0-12.4.12Z"/><path d="M508.57,93.5v7.28c0,5,0,10,0,15a5.5,5.5,0,0,0,.73,1.76l2.34.4c.14.87.27,1.75.4,2.62l-.28,2-2,.38-3.52,0-2.81,0h-2.85l-4.33.21-3.62-.43v-4.07l2.12-1.85-5.63-6.13-2.58-3-3-3.41L478,97.9c-1.21-1.52-2.36-3.08-3.64-4.53-2.28-2.57-4.65-5.07-7-7.6l-2.91-3.49L449.65,65v51.84l2.86,2c-.07,1.34-.12,2.57-.18,3.77l-7.05.31-.79.08-3.35,0-1.43,0-2.91,0-1.4-.2-.31-.78.63-4.16,1.11,0,1.95-.81V55.64a5.78,5.78,0,0,0-3.3-1.14c0-1.58-.39-3.18.19-4.68l1.14-.23,15,0,4.83,0,2.1.39v4.2l-2.32,1.17c3.49,4.06,6.26,8.28,10.15,11.55l4.95,5.69c2.53,4.19,6.08,7.54,9.3,11.16l1.37,1.51c.67.75,1.35,1.5,2,2.26l4.3,5,1.46,1.89c.73,1.2,1.26,2.58,2.77,3.07a19.29,19.29,0,0,0,5,5.71c0-7.61-.69-15.22,0-22.82.65-7.43.18-15.1.17-22.58,0-.8-.15-1.59-.22-2.38l-2.82-1.44c.07-1.31.14-2.63.22-4.08l1.37-.23h6.37l8.52,0c1.26,1.66.77,3.33,0,5-1,0-2.18-.24-2.14,1.39-1.24.8-.58,1.87-.42,2.88l0,11.26c0,3,.13,6.06.1,9.09C508.77,81.51,508.57,91.62,508.57,93.5Z"/></g></g></svg>