<svg xmlns="http://www.w3.org/2000/svg" viewBox="0 0 579.51 247.83"><defs><style>.cls-1{fill:#36302b;}.cls-2{fill:none;stroke:#36302b;stroke-miterlimit:10;stroke-width:10px;}.cls-3{fill:#6a6056;}.cls-4{fill:#c6b39b;}.cls-5{fill:#66594f;}.cls-6{fill:#858166;}.cls-7{fill:#9e9e3c;}.cls-8{fill:#19686d;}.cls-9{fill:#c23b24;}.cls-10{fill:#dadada;}.cls-11{fill:#343434;}.cls-12{fill:#232323;}.cls-13{fill:#fff;}.cls-14{fill:#18818f;}</style></defs><g id="Warstwa_2" data-name="Warstwa 2"><g id="Warstwa_1-2" data-name="Warstwa 1"><path class="cls-1" d="M206.37,88.83a7.06,7.06,0,0,0-1.83.37,11.64,11.64,0,0,1-1.81.46,21.58,21.58,0,0,1-2.35.25,7.54,7.54,0,0,0-2.32.52,4.59,4.59,0,0,0-1.79,1.16A13.89,13.89,0,0,0,195,93.32c-1,1.54-2,3.1-2.82,4.66s-1.76,3.11-2.71,4.65L186.19,108l-.55.86c-.22,0-.53.19-.94.6a16.5,16.5,0,0,0-1.69,2c-.58.82-1.11,1.6-1.6,2.35a7.16,7.16,0,0,0-.8,1.4c-.6,1.11-1.18,2.25-1.74,3.41l-.1.21c-1,1.38-2,2.76-3,4.15-.82,1.2-1.65,2.36-2.51,3.48a25.23,25.23,0,0,1-2.88,3.18,13,13,0,0,1-1.32,1.26l-.06.05a6.14,6.14,0,0,1-.92.3,1.51,1.51,0,0,1-1.9-1.5,4.19,4.19,0,0,1,.23-1.29,9.56,9.56,0,0,1,.55-1.33c.21-.44.39-.78.54-1,.58-1.06,1.2-2.14,1.84-3.24a24.6,24.6,0,0,0,1.66-3.38,9.81,9.81,0,0,0,.7-3.48,6.84,6.84,0,0,0-1-3.52,8.07,8.07,0,0,0-4.26-3.6,9.72,9.72,0,0,0-5.67-.16,3.85,3.85,0,0,1,.52-.55l.54-.47c.87-.81,1.7-1.63,2.48-2.46a33.13,33.13,0,0,1,2.51-2.36,14.16,14.16,0,0,1,2.3-1.6,4,4,0,0,1,2.72-.42,7.7,7.7,0,0,1,2.19,1,3.86,3.86,0,0,0,2.33.59,3.23,3.23,0,0,0,2.5-1.11A9.85,9.85,0,0,0,180.51,99a11.44,11.44,0,0,0,.81-2.35,5.11,5.11,0,0,0,0-2.3,2.82,2.82,0,0,0-1.17-1.7,4.4,4.4,0,0,0-2.58-.62,8.57,8.57,0,0,0-3.36.74,14.83,14.83,0,0,0-3,1.8,32.76,32.76,0,0,0-2.69,2.33c-.85.83-1.63,1.64-2.34,2.42s-1.42,1.43-2.13,2.11-1.44,1.34-2.15,2c-.44.4-.85.79-1.23,1.16l-1.23,1.17c-.27.27-.5.5-.68.7l-.69.71c-.43.46-.88.9-1.34,1.31a11.11,11.11,0,0,0-1.32,1.41,6.56,6.56,0,0,0,1.21-2.52,13.88,13.88,0,0,1,.93-2.66c.42-.93.86-1.83,1.29-2.7s.88-1.77,1.31-2.7c1.19-2.66,2.42-5.28,3.67-7.88s2.53-5.25,3.83-8c.65-1.36,1.33-2.7,2.05-4s1.41-2.7,2.07-4.11c.76-1.6,1.52-3.19,2.29-4.79a12.34,12.34,0,0,0,1.23-5.09c0-.35.05-.69.08-1a1.16,1.16,0,0,0-.5-.94,1.55,1.55,0,0,0-1.19-.34,9.49,9.49,0,0,0-1.6.23,13.93,13.93,0,0,0-1.63.45l-1.24.41a8,8,0,0,1-1.54.36c-.54.06-1.08.14-1.61.24a4.39,4.39,0,0,0-1.47.53,3.88,3.88,0,0,0-1.16,1.06,4.62,4.62,0,0,0-.74,2.48,8.87,8.87,0,0,1-.43,2.62,10.81,10.81,0,0,1-1.17,2.76c-.52.89-1,1.76-1.47,2.63-1.17,2.13-2.25,4.28-3.21,6.44s-2,4.33-3,6.5c-.48,1.06-1,2.14-1.42,3.25s-.94,2.23-1.4,3.34q-2.52,5.85-5.22,11.58t-5,11.5l-.24.36c-.87,1.27-1.74,2.57-2.63,3.87-.44.66-.9,1.3-1.37,1.93s-.93,1.28-1.37,1.93-.81,1.07-1.23,1.61-.84,1.07-1.23,1.61c-.57.62-1.11,1.23-1.64,1.85s-1.08,1.21-1.65,1.77a17.91,17.91,0,0,1-2.79,2.2,17.62,17.62,0,0,1-3.81,1.95,7.15,7.15,0,0,1-3.68.41,3.16,3.16,0,0,1-2.43-2.53A8.26,8.26,0,0,1,116,132a44.28,44.28,0,0,1,1.2-4.43q1.62-4.6,3.59-9.12a57.66,57.66,0,0,1,4.69-8.67c.34-.52.82-1.29,1.42-2.3a16.33,16.33,0,0,1,2.1-2.76,7.77,7.77,0,0,1,2.55-1.82,2.42,2.42,0,0,1,2.66.53,4.92,4.92,0,0,1,1.34,2.23,14.64,14.64,0,0,1,.44,2.46,6.91,6.91,0,0,1,.06.95,2.94,2.94,0,0,0,.16,1,2.33,2.33,0,0,0,.46.81,1,1,0,0,0,.91.2,2,2,0,0,0,1.79-1.25c.35-.75.68-1.44,1-2.08.42-.88.87-1.75,1.36-2.61a7.11,7.11,0,0,0,.87-2.8,2.66,2.66,0,0,0-.21-1.36,7.38,7.38,0,0,0-.74-1.2,2.84,2.84,0,0,0-1.2-.81,6.34,6.34,0,0,0-1.6-.37,12.58,12.58,0,0,0-1.74,0c-.59,0-1.1.06-1.54.07a24.46,24.46,0,0,0-11.43,4.52,36.67,36.67,0,0,0-6.29,5.76,72.6,72.6,0,0,0-5.12,6.64,36.88,36.88,0,0,0-3.71,6.87c.14-.87.26-1.74.33-2.62a35.45,35.45,0,0,0,.11-6.17,8.38,8.38,0,0,0-2.65-5.47,7.23,7.23,0,0,0-4-2,15.3,15.3,0,0,0-5.14.33,19.93,19.93,0,0,0-4.31,1.6,29,29,0,0,0-3.93,2.42,35.22,35.22,0,0,0-3.57,3q-1.68,1.61-3.11,3.25a70.79,70.79,0,0,0-4.55,5.71,37.86,37.86,0,0,0-5.11,10.26,22.14,22.14,0,0,0,.12-3.54A26.51,26.51,0,0,0,71,119.26a68.35,68.35,0,0,0-4.88-9c-.73-1.18-1.5-2.3-2.3-3.35s-1.59-2.12-2.38-3.23q-2.05-2.88-4-5.87a18.75,18.75,0,0,1-2.6-6.56,16.17,16.17,0,0,1-.2-4.61,18.36,18.36,0,0,1,1-4.65,12.89,12.89,0,0,1,2-3.4,13.43,13.43,0,0,1,3-2.82,11.35,11.35,0,0,1,3.78-1.64,10.39,10.39,0,0,1,4.2-.09,7.55,7.55,0,0,1,3.25,1.47,10,10,0,0,1,2.32,2.62,14.05,14.05,0,0,1,1.45,3.21,15.68,15.68,0,0,1,.68,3.26,16.68,16.68,0,0,1,0,3.8,14.82,14.82,0,0,1-1,3.85,10,10,0,0,1-2.12,3.27,7.54,7.54,0,0,1-3.55,2,6.85,6.85,0,0,0-1.39.46c-.38.18-.46.6-.24,1.25a1.36,1.36,0,0,0,.88,1.08,3.64,3.64,0,0,0,1.49.18,6.37,6.37,0,0,0,1.66-.34,10.44,10.44,0,0,0,1.46-.6,15.31,15.31,0,0,0,3.75-2.18,15.51,15.51,0,0,0,3-3.14,19.6,19.6,0,0,0,2.49-4.75,20.23,20.23,0,0,0,1-5.11,18.82,18.82,0,0,0-.51-5.28A16,16,0,0,0,81,74a12.35,12.35,0,0,0-3.83-3.75,10.34,10.34,0,0,0-5.73-1.43,2.4,2.4,0,0,0-.64,0,3,3,0,0,1-.85,0,14.66,14.66,0,0,0-4.54.82,31.72,31.72,0,0,0-5.23,2.15,33.57,33.57,0,0,0-3.71,2.4A38,38,0,0,0,53.19,77a25.49,25.49,0,0,0-2.53,2.85c-.77,1-1.49,2.06-2.15,3.12a23.87,23.87,0,0,0-2.36,5.9A25.73,25.73,0,0,0,45.32,95a23.24,23.24,0,0,0,.75,6.13,20.12,20.12,0,0,0,2.44,5.66c.88,1.37,1.74,2.76,2.58,4.14s1.72,2.77,2.65,4.14q2.55,3.62,5.19,7.27a23.18,23.18,0,0,1,3.72,8,22.31,22.31,0,0,1,.67,6.06,21.12,21.12,0,0,1-.79,5.4A33.31,33.31,0,0,1,60.67,147a24.25,24.25,0,0,1-1.55,2.8c-.6.93-1.22,1.81-1.87,2.63A18.52,18.52,0,0,1,53,156.12a20.78,20.78,0,0,1-5.2,2.35,21.89,21.89,0,0,1-5.66.85,16,16,0,0,1-5.6-.87,41.82,41.82,0,0,1-4.45-1.77,14.64,14.64,0,0,1-4-2.61A16.42,16.42,0,0,1,25.48,151a19.33,19.33,0,0,1-1.9-3.53,23.31,23.31,0,0,1-1.69-9.22,32.68,32.68,0,0,1,1.46-9.42,18.44,18.44,0,0,1,2.44-4.8,17.16,17.16,0,0,1,3.87-4,13.9,13.9,0,0,1,5-2.34,11.12,11.12,0,0,1,5.66.15,7.09,7.09,0,0,1,3.59,2.39,11.33,11.33,0,0,1,2,3.93,16,16,0,0,1,.64,4.52,17.21,17.21,0,0,1-.47,4.14,4.39,4.39,0,0,1-.86,1.89l-1.38,1.76a5.1,5.1,0,0,0-.45.61,5.74,5.74,0,0,0-.4.78,1.41,1.41,0,0,0-.13.75.82.82,0,0,0,.49.59,1.4,1.4,0,0,0,1.2,0,6.85,6.85,0,0,0,1.23-.69,9.18,9.18,0,0,0,1.11-1c.34-.36.61-.66.8-.89a14,14,0,0,0,2-2.76,27.47,27.47,0,0,0,1.43-3.05,18.5,18.5,0,0,0,1-6.49,17.65,17.65,0,0,0-1.32-6.57,11.69,11.69,0,0,0-3.89-5A10.6,10.6,0,0,0,40,111.08a14.21,14.21,0,0,0-3.77.66,19.31,19.31,0,0,0-3.44,1.49,38,38,0,0,0-9.41,7.42,32.59,32.59,0,0,0-5.29,8,33.62,33.62,0,0,0-2.94,9.4,31,31,0,0,0,0,9.52,20.52,20.52,0,0,0,3.33,8.51,21.68,21.68,0,0,0,6.31,6.19A19.83,19.83,0,0,0,33.28,165a26.29,26.29,0,0,0,3.66.11c1.22-.06,2.45-.17,3.7-.35a28.44,28.44,0,0,0,3.67-.76,36.15,36.15,0,0,0,7.27-2.77,47.33,47.33,0,0,0,7-4.31,43.51,43.51,0,0,0,6-5.43,29.78,29.78,0,0,0,4.48-6.33,48.87,48.87,0,0,0,3-7.34,21,21,0,0,0-.12,2.84,29.21,29.21,0,0,0,.09,3.48,16.58,16.58,0,0,0,.63,3.35A7,7,0,0,0,76,151.77a11.07,11.07,0,0,0,5.37,1.48,7.8,7.8,0,0,0,2.21-.11,18.08,18.08,0,0,0,2.11-.53,27.89,27.89,0,0,0,7.2-4,51.89,51.89,0,0,0,6.2-5.48,36.33,36.33,0,0,0,7.1-10.89c.1-.23.19-.46.29-.7a23.13,23.13,0,0,0-.23,3.48,17.9,17.9,0,0,0,.53,4,10.12,10.12,0,0,0,1.73,3.7,6.88,6.88,0,0,0,3.51,2.44,11.81,11.81,0,0,0,4.3.54l3.48-.66a12,12,0,0,0,2.46-1.06c.73-.43,1.47-.89,2.23-1.37a9.84,9.84,0,0,0,2.06-1.55c.62-.61,1.23-1.23,1.84-1.86a85.59,85.59,0,0,0,5.76-6.81l2.16-2.86-.63,1.43c-.58,1.26-1.17,2.53-1.77,3.79s-1.15,2.56-1.65,3.87c-.13.31-.27.72-.43,1.21a5.31,5.31,0,0,0-.25,1.4,1.77,1.77,0,0,0,.28,1.09c.19.29.62.41,1.27.35a7.31,7.31,0,0,0,1.24-.08q.89-.1,1.71-.24l1.53-.25.78-.13,1.11-.36a7,7,0,0,0,1.63-.44,2.55,2.55,0,0,0,1.17-1.06,15.78,15.78,0,0,0,1.73-3.55c.43-1.26.89-2.48,1.37-3.66s1.07-2.51,1.63-3.79,1.08-2.53,1.56-3.77c.61-1.6,1.2-3.22,1.78-4.84a15.73,15.73,0,0,1,2.5-4.51,12,12,0,0,1,4.68-3.19,10,10,0,0,1,1.27-.43,1.33,1.33,0,0,1,1.17.18,1.71,1.71,0,0,1,.51.72,7.55,7.55,0,0,0,.44.9,4.57,4.57,0,0,1,.6,3,12.36,12.36,0,0,1-.94,3.17,23.35,23.35,0,0,1-1.66,3.11c-.64,1-1.21,1.94-1.7,2.76a16.61,16.61,0,0,0-1.32,3.07,9.23,9.23,0,0,0-.48,3.25,6.37,6.37,0,0,0,.78,2.94,5,5,0,0,0,2.63,2.11,6.83,6.83,0,0,0,3.69.53,11.06,11.06,0,0,0,2.45-.64,1.19,1.19,0,0,0,.29.18,2.17,2.17,0,0,0,1.59-.13,3.87,3.87,0,0,0,1.31-.86,24.57,24.57,0,0,0,3.87-3.63c1.17-1.37,2.29-2.79,3.36-4.29.27-.37.53-.75.79-1.13a66.47,66.47,0,0,0,4.22-6c.76-1.24,1.47-2.48,2.15-3.72.12-.21.23-.43.34-.64l1.73-2.76c1.11-1.77,2.18-3.46,3.23-5.07.58-.88,1.11-1.76,1.6-2.64s1-1.77,1.6-2.64a15.4,15.4,0,0,1,1-1.36c.32-.4.64-.86,1-1.35a4.71,4.71,0,0,1,.54-1.09,3.18,3.18,0,0,1,.82-1,46.6,46.6,0,0,1-.83,7.84c-.5,2.62-.95,5.2-1.36,7.72-.29,1.89-.65,3.77-1.09,5.67a27,27,0,0,1-1.89,5.49c-.25.49-.57,1.1-1,1.84a14.62,14.62,0,0,1-1.38,2.1,7.16,7.16,0,0,1-1.74,1.62,2.47,2.47,0,0,1-2,.4,2.24,2.24,0,0,1-1.52-1.56c-.34-.89-.68-1.75-1-2.58a4.88,4.88,0,0,0-1.21-1.86c-.46-.41-1.16-.21-2.08.6a6,6,0,0,0-1.74,2.77,4.51,4.51,0,0,0,.12,3.16,4,4,0,0,0,1,1.48,5.07,5.07,0,0,0,1.45.91,5.92,5.92,0,0,0,1.7.45c.6.08,1.2.14,1.79.18h.09a14.07,14.07,0,0,0,6.36-1.19,19.71,19.71,0,0,0,5.33-3.46,25.06,25.06,0,0,0,4.15-4.93,26.11,26.11,0,0,0,2.78-5.64,36.7,36.7,0,0,0,1.76-7.35q.48-3.67.86-7.53c.17-1.57.32-3.14.45-4.72s.35-3.15.65-4.73a11.09,11.09,0,0,1,.53-1.86c.22-.6.46-1.23.71-1.89a3.91,3.91,0,0,1,.22-.66c.15-.39.29-.79.41-1.21s.23-.8.32-1.15.11-.53.05-.52m-105.2,28.5c-.2,1.16-.42,2.38-.65,3.66-.44,1.79-.93,3.59-1.45,5.4S98,130,97.27,131.71c-.29.7-.55,1.41-.8,2.11s-.55,1.41-.89,2.12a53.38,53.38,0,0,1-3.21,6.17,17.15,17.15,0,0,1-4.77,5.12c-.64.44-1.22.81-1.76,1.11a6.27,6.27,0,0,1-2,.45,2.7,2.7,0,0,1-2-.52,3.72,3.72,0,0,1-1.29-3,18.18,18.18,0,0,1,.2-3.32q.47-2.78,1.13-5.53A53.39,53.39,0,0,1,83.57,131q1.08-3.07,2.46-6.12A47,47,0,0,1,89.24,119a25.33,25.33,0,0,1,1.85-2.74c.69-.88,1.37-1.8,2-2.77A20.78,20.78,0,0,1,95.37,111a4.05,4.05,0,0,1,3.06-1.15,2.54,2.54,0,0,1,2,1.39,6.51,6.51,0,0,1,.8,2.34,13.46,13.46,0,0,1-.09,3.72"/><path class="cls-1" d="M516.44,146.07a19.45,19.45,0,0,1,1.91-1.83q1-.86,1.62-1.41c1.38-1.24,2.72-2.5,4-3.76s2.62-2.52,4-3.77a17.9,17.9,0,0,0,1.79-1.58c.56-.56,1.14-1.12,1.73-1.68q4.8-4.42,9.93-8.51t10.08-8.41q7.41-6.5,15.28-12.8a5.19,5.19,0,0,0,1.42-1.74c.33-.68.64-1.37.91-2.07a2.66,2.66,0,0,0,.1-1.5A2,2,0,0,0,568.06,96a6.32,6.32,0,0,0-1.68-.59,16.17,16.17,0,0,0-1.69-.23c-.71-.08-1.36-.18-2-.3a19,19,0,0,1-1.92-.47,5.86,5.86,0,0,0-2.29-.39,2.52,2.52,0,0,0-1.83,1.19c-.39.66-.81,1.31-1.25,1.93A14.55,14.55,0,0,1,554,98.86a54.2,54.2,0,0,1-6.52,5.79q-3.54,2.68-6.77,5.56-3.35,3-6.62,6t-6.64,6c-2.09,1.89-4.2,3.74-6.33,5.53s-4.21,3.7-6.21,5.68q-1.44,1.4-3.14,3.11l-.2.15q-1.83,1.32-3.73,2.64c-1.48,1-3,1.94-4.4,2.83s-2.95,1.78-4.5,2.65c-.28.12-.65.29-1.14.53s-1,.46-1.53.66a5.38,5.38,0,0,1-1.55.35,1.69,1.69,0,0,1-1.21-.33,1.09,1.09,0,0,1-.46-1.16,3.72,3.72,0,0,1,.44-1.14,17,17,0,0,1,3.74-5c1.57-1.47,3.08-2.88,4.52-4.26.72-.65,1.4-1.32,2.06-2l2-2,6.84-6.82q3.39-3.37,7.14-6.53c.16-.14.37-.32.62-.56A6.75,6.75,0,0,0,521,116a1.26,1.26,0,0,0,.29-.77,1.05,1.05,0,0,0-.37-.81,1.59,1.59,0,0,0-1.41-.48,4.05,4.05,0,0,1-1.52-.07c-1-.2-2.1-.47-3.2-.8a7.79,7.79,0,0,0-3.13-.31,3.29,3.29,0,0,0-1.92.86,8,8,0,0,0-.89.72c-.44.4-.65.66-.62.78a11.38,11.38,0,0,1-.75-2.22,2.66,2.66,0,0,0-1.45-1.76,8.79,8.79,0,0,0-1.59-.72l-1.63-.56a10.81,10.81,0,0,0-3.62-.22l-3.57.43a26.69,26.69,0,0,0-4.11.77c-1.31.36-2.61.75-3.9,1.18-.89.34-1.75.68-2.58,1s-1.63.74-2.41,1.16a42.25,42.25,0,0,0-7.71,5.1,76.28,76.28,0,0,0-6.63,6.23c-.66.72-1.27,1.46-1.84,2.22l-.42.32c-1.22.94-2.45,1.8-3.67,2.58s-2.42,1.6-3.62,2.43l-3.52,2.28a9.76,9.76,0,0,1-3.89,1.43,3.69,3.69,0,0,1-1.38-.16c-.43-.13-.59-.49-.49-1.05a6.59,6.59,0,0,1,.9-1.95,36.37,36.37,0,0,1,2.24-3.32c.8-1.05,1.66-2.07,2.58-3.08q3.36-3.84,6.7-7.74t7.06-7.64q3.72-3.68,7.26-7.4c2.37-2.48,4.71-5,7.05-7.67l4.18-4.41a56.7,56.7,0,0,1,4.46-4.16c.7-.56,1.41-1.14,2.13-1.75a22.27,22.27,0,0,0,2-2,12.22,12.22,0,0,0,1.62-2.26,5.12,5.12,0,0,0,.65-2.5c0-1.24-.43-1.92-1.31-2.06a24.51,24.51,0,0,0-2.79-.25,6.68,6.68,0,0,1-1.89-.32,19.5,19.5,0,0,0-2.1-.49,11.47,11.47,0,0,0-2.06-.16,3.17,3.17,0,0,0-1.78.55,1.6,1.6,0,0,0-.67,1.14,6.34,6.34,0,0,1-.32,1.3c-.24.54-.49,1-.74,1.48a9.08,9.08,0,0,1-.89,1.27,21.31,21.31,0,0,1-2.31,2.52c-.83.77-1.66,1.57-2.47,2.4q-2.3,2.35-4.55,4.77T470,96.66c-.89,1-1.79,2-2.68,3a23.39,23.39,0,0,1-2.9,2.82,11.16,11.16,0,0,1-1.41,1,1.42,1.42,0,0,1-1,.21,2,2,0,0,1-.94-.52l-1.21-1.11a6.9,6.9,0,0,0-3.68-1.76,16.16,16.16,0,0,0-4.4-.09,24.88,24.88,0,0,0-4.44.94,39.91,39.91,0,0,0-3.79,1.37A60.56,60.56,0,0,0,433,108.47a40.38,40.38,0,0,0-8.74,8.09c-.71.91-1.5,2-2.36,3.41-.46.48-.91,1-1.36,1.4a23.32,23.32,0,0,1-2.08,1.84c-1.59,1.4-3.23,2.82-4.9,4.27a18.76,18.76,0,0,1-5.54,3.34c-.62.2-1.41.42-2.37.64a2.59,2.59,0,0,1-2.32-.39,1.08,1.08,0,0,1-.41-1,3.72,3.72,0,0,1,.43-1.25,7.12,7.12,0,0,1,.83-1.2,6.25,6.25,0,0,0,.71-1,54.93,54.93,0,0,1,5.48-6.58q2.11-2.33,4.4-4.58c1.52-1.51,3-3,4.53-4.55a28.17,28.17,0,0,0,3.65-4.53,11.7,11.7,0,0,0,1.88-5.48,4.27,4.27,0,0,0-.62-2.79,6.13,6.13,0,0,0-2-1.91,9.6,9.6,0,0,0-2.78-1.09,10.87,10.87,0,0,0-3-.28,18.85,18.85,0,0,0-4.2.74,33.3,33.3,0,0,0-4,1.47c-.52.22-1,.47-1.48.72l-1.5.81a7.27,7.27,0,0,1-1.34.75,2.73,2.73,0,0,0-1.17.85.91.91,0,0,0,.11-.16,2.82,2.82,0,0,0,.23-.36,6.44,6.44,0,0,1,.45-.6c1.9-2.42,2.36-4.31,1.35-5.65a1.69,1.69,0,0,0-.42-.36,2.26,2.26,0,0,0-.9-.24c-.43,0-1-.1-1.84-.14l-3.15-.12a10.75,10.75,0,0,1-1.34-.07,2.29,2.29,0,0,1-.77-.18,1.39,1.39,0,0,0-1.5.09,3.81,3.81,0,0,0-.88,1.2,7.12,7.12,0,0,0-.55,1.59,6.41,6.41,0,0,1-.43,1.34,7.7,7.7,0,0,1-.9,1.42l-1.07,1.31c-1.13,1.26-2.2,2.55-3.23,3.86s-2.1,2.56-3.2,3.78-2.19,2.66-3.24,4l-1.39,1.77c-.35.37-.71.74-1.08,1.1q-1.61,1.58-3.29,3.14-2,1.8-3.93,3.44t-4.06,3.27c-.25.15-.6.38-1,.69a14.13,14.13,0,0,1-1.42.87,5.5,5.5,0,0,1-1.47.57,1.67,1.67,0,0,1-1.23-.15,1.11,1.11,0,0,1-.63-1.09,3.65,3.65,0,0,1,.28-1.19,17.12,17.12,0,0,1,3-5.46c1.34-1.68,2.63-3.3,3.85-4.86.61-.76,1.19-1.51,1.75-2.27l1.66-2.28c1.93-2.59,3.86-5.16,5.76-7.72s3.93-5.06,6.1-7.5c.14-.16.32-.37.53-.64a7.76,7.76,0,0,0,.54-.76,1.28,1.28,0,0,0,.18-.81,1,1,0,0,0-.48-.74,1.59,1.59,0,0,0-1.46-.28,3.88,3.88,0,0,1-1.5.15,32.44,32.44,0,0,1-3.26-.33,7.5,7.5,0,0,0-3.12.14A3.3,3.3,0,0,0,374,91.11a6.75,6.75,0,0,0-.77.84c-.38.46-.54.74-.49.86a10.54,10.54,0,0,1-1.06-2.09A2.64,2.64,0,0,0,370,89.19a8.88,8.88,0,0,0-1.67-.49l-1.69-.32a10.6,10.6,0,0,0-3.6.31l-3.45.94A25.58,25.58,0,0,0,355.63,91c-1.24.55-2.47,1.12-3.68,1.73-.83.46-1.62.93-2.39,1.39s-1.51,1-2.21,1.5a42.32,42.32,0,0,0-6.87,6.15c-1.69,1.89-3.29,3.88-4.8,6a22.24,22.24,0,0,0,1.06-3.27,26.8,26.8,0,0,0,.58-10.17,68.86,68.86,0,0,0-2.12-10A39.63,39.63,0,0,0,334,80.35c-.47-1.23-.92-2.49-1.36-3.78q-1.15-3.34-2.13-6.75a18.81,18.81,0,0,1-.64-7,16.34,16.34,0,0,1,1.1-4.49,18.79,18.79,0,0,1,2.24-4.17A12.62,12.62,0,0,1,336,51.42a12.76,12.76,0,0,1,3.69-1.84,11.52,11.52,0,0,1,4.07-.52,10.29,10.29,0,0,1,4,1.1,7.46,7.46,0,0,1,2.69,2.33,10,10,0,0,1,1.48,3.17,14.2,14.2,0,0,1,.49,3.49,17.33,17.33,0,0,1-.27,3.31,17,17,0,0,1-1.09,3.65,15.18,15.18,0,0,1-2,3.41,9.93,9.93,0,0,1-2.94,2.54,7.39,7.39,0,0,1-4,.94,6.75,6.75,0,0,0-1.46,0c-.41.06-.61.44-.58,1.13a1.39,1.39,0,0,0,.54,1.29,3.77,3.77,0,0,0,1.37.59,6.58,6.58,0,0,0,1.68.14,9.66,9.66,0,0,0,1.56-.17,14.9,14.9,0,0,0,7.9-3.21A19.08,19.08,0,0,0,356.87,69a19.57,19.57,0,0,0,2.37-4.63,18.75,18.75,0,0,0,1-5.21,16.21,16.21,0,0,0-.61-5.45A12.16,12.16,0,0,0,357,49,10.24,10.24,0,0,0,352,46a2.58,2.58,0,0,0-.62-.17,2.61,2.61,0,0,1-.8-.27,14.87,14.87,0,0,0-4.57-.49,31.24,31.24,0,0,0-5.58.59,34.13,34.13,0,0,0-4.22,1.26,38.8,38.8,0,0,0-3.93,1.71,25.75,25.75,0,0,0-3.21,2c-1,.77-2,1.56-2.92,2.39a23.86,23.86,0,0,0-3.91,5,26.21,26.21,0,0,0-2.52,5.7,23.44,23.44,0,0,0-1,6.09,19.92,19.92,0,0,0,.74,6.12c.44,1.56.87,3.13,1.28,4.7s.87,3.14,1.37,4.71q1.41,4.2,2.9,8.44a23.24,23.24,0,0,1,1.29,8.74,22.05,22.05,0,0,1-1.06,6,20.83,20.83,0,0,1-2.27,5,33.36,33.36,0,0,1-3.21,4.42,24,24,0,0,1-2.26,2.25c-.83.72-1.67,1.39-2.51,2a18.43,18.43,0,0,1-5.13,2.37,19.89,19.89,0,0,1-5.61.78,20.64,20.64,0,0,1-5.61-.78,15.71,15.71,0,0,1-5.09-2.42,37.58,37.58,0,0,1-3.72-3,13.94,13.94,0,0,1-3-3.63,16.5,16.5,0,0,1-1.62-3.66,18.75,18.75,0,0,1-.82-3.93,23.28,23.28,0,0,1,1-9.32,32.69,32.69,0,0,1,4-8.63A18.2,18.2,0,0,1,293,86.09a17.19,17.19,0,0,1,4.78-2.72,13.57,13.57,0,0,1,5.39-.83,10.93,10.93,0,0,1,5.34,1.74,7,7,0,0,1,2.74,3.31,11.26,11.26,0,0,1,.81,4.33,16.59,16.59,0,0,1-.66,4.52,17.06,17.06,0,0,1-1.61,3.84,4.25,4.25,0,0,1-1.35,1.57c-.59.41-1.19.85-1.8,1.3a4,4,0,0,0-.6.46,5.91,5.91,0,0,0-.6.63,1.37,1.37,0,0,0-.33.69.78.78,0,0,0,.3.69,1.3,1.3,0,0,0,1.13.37,6.19,6.19,0,0,0,1.36-.31,8.44,8.44,0,0,0,1.33-.62c.43-.25.76-.46,1-.63a14.25,14.25,0,0,0,2.64-2.08,28.39,28.39,0,0,0,2.21-2.53,18.67,18.67,0,0,0,2.74-6,17.81,17.81,0,0,0,.59-6.67,11.7,11.7,0,0,0-2.32-5.86,10.49,10.49,0,0,0-6-3.65,13.69,13.69,0,0,0-3.77-.43,18.53,18.53,0,0,0-3.69.45,38,38,0,0,0-11,4.46,31.79,31.79,0,0,0-5.33,4.15c.18-.22.37-.43.57-.64a10.52,10.52,0,0,1-4.59,3,15.79,15.79,0,0,1-4.95.78c-.86,0-1.73,0-2.59,0h-1.06a39.44,39.44,0,0,0-6.32.61,23.08,23.08,0,0,0-6.69,2.2,6.71,6.71,0,0,0-1.2.9A11.32,11.32,0,0,1,258,94.38a3.07,3.07,0,0,1-1.52.5,2.25,2.25,0,0,1-.64-.07,2.74,2.74,0,0,1-1.73-2.15,15.93,15.93,0,0,1-.83-3.26,28.82,28.82,0,0,0-.56-3c-.25-.81-.48-1.7-.68-2.64a16.15,16.15,0,0,1-.4-3,8.42,8.42,0,0,1,.44-3,5.79,5.79,0,0,1,2.05-2.69,16.06,16.06,0,0,1,3.49-2.22A24.39,24.39,0,0,0,260.87,71c1.85-1.27,3.77-2.7,5.72-4.26a32.14,32.14,0,0,0,5-5,21,21,0,0,0,3.26-5.7,12.14,12.14,0,0,0,.58-6.3,5.84,5.84,0,0,0-1.88-3.48,10.64,10.64,0,0,0-3.82-2.1,19.57,19.57,0,0,0-4.89-.87c-.7,0-1.39,0-2,0a21.22,21.22,0,0,0-2.74.23,20.48,20.48,0,0,0-9.74,4.25,25.56,25.56,0,0,0-6.64,8,25,25,0,0,0-2.55,6.93,37.59,37.59,0,0,0-.76,7.3,15.72,15.72,0,0,0,.44,2.76c.27,1.17.49,2.35.66,3.51a16.29,16.29,0,0,1,.11,3.54,5.77,5.77,0,0,1-1.42,3.34l0,0a14,14,0,0,1-3.3,2.49c-1.13.62-2.23,1.25-3.27,1.88s-2.41,1.54-3.67,2.33-2.37,1.52-3.47,2.29c-2.5,1.84-4.88,3.78-7.06,5.73a45.71,45.71,0,0,0-5.65,6.26,35,35,0,0,0-4.2,7.23,27.33,27.33,0,0,0-2.06,7.82,19.43,19.43,0,0,0,.76,7.86,22.78,22.78,0,0,0,1.68,3.76,16.71,16.71,0,0,0,2.36,3.28,17.1,17.1,0,0,0,6,4.29,27.28,27.28,0,0,0,7.24,2h0a12.64,12.64,0,0,0,1.39.18l1.52.1a27.26,27.26,0,0,0,4.12.08,22,22,0,0,0,4.68-.79,55.45,55.45,0,0,0,8.56-3.33,9.79,9.79,0,0,0,1.26-.8c.67-.46,1.38-.92,2.13-1.36a14.1,14.1,0,0,1,2.29-1.11,3.76,3.76,0,0,1,1.24-.27,2.55,2.55,0,0,1,1.4.33,2.87,2.87,0,0,1,1.5,2.1.74.74,0,0,0,.37.55,4.55,4.55,0,0,0,1.77.62,12.08,12.08,0,0,0,2.62.19,10.19,10.19,0,0,0,2.49-.37,5.22,5.22,0,0,0,1.7-.77,1.45,1.45,0,0,0,.65-1.06,5,5,0,0,0-.21-1.77,13.14,13.14,0,0,0-.78-2,19.72,19.72,0,0,1-.91-2.08,5.46,5.46,0,0,1-.2-3.06,7.82,7.82,0,0,1,1.11-2.59,16.71,16.71,0,0,1,1.62-2.14c.54-.61,1.08-1.26,1.57-1.88a39.5,39.5,0,0,0,4-6.67,18.64,18.64,0,0,0,1.78-7.25,6.74,6.74,0,0,0-.2-1.4,10.52,10.52,0,0,1-.31-1.79,2.58,2.58,0,0,1,2.22-3,8.88,8.88,0,0,0,1.82-.62,8.39,8.39,0,0,0,2.81-2.75c-2,2.71-2.76,6.72-3.19,9.93a20.6,20.6,0,0,0,.78,9.09,21.65,21.65,0,0,0,4.26,7.73,19.53,19.53,0,0,0,7.28,5.08,23.87,23.87,0,0,0,3.44,1.13c1.17.3,2.38.53,3.61.72a28.83,28.83,0,0,0,3.7.3,35.28,35.28,0,0,0,7.69-.6,46.49,46.49,0,0,0,7.83-2.17,42.7,42.7,0,0,0,7.26-3.51,29.55,29.55,0,0,0,6-4.8,48.47,48.47,0,0,0,3.91-4.78l-.18.41a24,24,0,0,0-1.19,4.26,18.06,18.06,0,0,0-.28,3,11.65,11.65,0,0,0,.34,3.08,7.92,7.92,0,0,0,1.24,2.7,5.27,5.27,0,0,0,2.42,1.81l.18.09a8.59,8.59,0,0,0,4.23.2,15.39,15.39,0,0,0,4.06-1.36,26.61,26.61,0,0,0,6.5-4.33c.45-.42.88-.83,1.29-1.2a16.13,16.13,0,0,1,1.37-1.12,9.11,9.11,0,0,0,.82-.76,1.57,1.57,0,0,1,.88-.5,1.44,1.44,0,0,1-.15.86l-.42.83a9,9,0,0,0-.32,3.87,6.11,6.11,0,0,0,1.64,3.5,4.65,4.65,0,0,0,3.41,1.73,10.35,10.35,0,0,0,4-.67,17.91,17.91,0,0,0,3.85-2,34.08,34.08,0,0,0,3.11-2.37c1.1-.93,2.19-1.89,3.27-2.85a47.63,47.63,0,0,1-4.85,5.48,2.67,2.67,0,0,0-.89,1.57,1.91,1.91,0,0,0,.27,1.41,2.43,2.43,0,0,0,1,.31c.49.07,1.68.19,3.55.37.59,0,1.16.12,1.71.2a12.11,12.11,0,0,0,1.72.12,2.83,2.83,0,0,0,1.55-.41,4.47,4.47,0,0,0,1.17-1.05c1.33-1.43,2.63-2.89,3.92-4.37s2.58-3,3.89-4.54q3-3.57,5.8-7.12a46.61,46.61,0,0,1,6.37-6.6q1.68-1.5,3.39-3c1-.86,2.07-1.7,3.16-2.52a25.07,25.07,0,0,1,3.51-2.21l1.39-.69a10.3,10.3,0,0,1,2-.74,4.87,4.87,0,0,1,1.87-.14,1.43,1.43,0,0,1,1.2,1,2.57,2.57,0,0,1-.18,2,8.24,8.24,0,0,1-1.37,2c-.58.62-1.18,1.21-1.8,1.76a21.61,21.61,0,0,0-1.58,1.53l-2.8,3.12c-.92,1-1.85,2.08-2.77,3.13-1.61,1.71-3.18,3.44-4.69,5.2a47.4,47.4,0,0,0-4.15,5.62,23.14,23.14,0,0,0-1.22,2.38,9.75,9.75,0,0,0-.75,2.56,7.37,7.37,0,0,0,.06,2.57,5.24,5.24,0,0,0,1.27,2.41,4.16,4.16,0,0,0,1.61,1.06,13.46,13.46,0,0,0,2,.6,14,14,0,0,0,6.6-.47,27.47,27.47,0,0,0,6.12-2.67,47.7,47.7,0,0,0,7.16-5.23l1.09-.94c-.15.43-.3.86-.42,1.3a11.56,11.56,0,0,0-.23,6.2c.5,1.94,2,3.32,4.49,4.16a13.07,13.07,0,0,0,7.25-.24,20.05,20.05,0,0,0,3.58-1.61,33.12,33.12,0,0,0,3.32-2.16c1.07-.79,2.12-1.59,3.16-2.41a11.31,11.31,0,0,0,.93-.67,2.85,2.85,0,0,0,.54-.48.52.52,0,0,1,.5-.26c-.27.83-.47,1.49-.61,2l-.43,1.46c-.14.48-.22.77-.24.88a8.3,8.3,0,0,0-.06,2.44,4.62,4.62,0,0,0,.88,2.25,4.47,4.47,0,0,0,2.75,1.79,14.78,14.78,0,0,0,3.25.4,9.19,9.19,0,0,0,2.55-.37,10,10,0,0,0,2.3-1q4.64-2.57,9.05-5.63c.78-.54,1.55-1.08,2.31-1.64-.2.48-.38.95-.53,1.42a17.73,17.73,0,0,0-.7,2.89,11.57,11.57,0,0,0-.11,3.1,7.92,7.92,0,0,0,.85,2.85,5.21,5.21,0,0,0,2.15,2.14l.16.12a8.67,8.67,0,0,0,4.18.8,15.34,15.34,0,0,0,4.23-.76,26.69,26.69,0,0,0,7.08-3.34c.51-.36,1-.7,1.46-1a16.5,16.5,0,0,1,1.52-.91,11,11,0,0,0,.92-.63,1.53,1.53,0,0,1,.95-.37,1.37,1.37,0,0,1-.27.82l-.53.77a8.82,8.82,0,0,0-.88,3.78,6.07,6.07,0,0,0,1.14,3.7,4.7,4.7,0,0,0,3.14,2.21,10.37,10.37,0,0,0,4-.1,17.31,17.31,0,0,0,4.13-1.43,35.94,35.94,0,0,0,3.42-1.89q2.06-1.29,4.08-2.62c1-.67,2.06-1.36,3.08-2a22.65,22.65,0,0,0-1.72,3.31,9.78,9.78,0,0,0-.76,4.79,5.79,5.79,0,0,0,1.42,3,6.52,6.52,0,0,0,2.77,1.93c.4.1.78.18,1.13.24a6.13,6.13,0,0,0,1.17.07l.62,0a1.17,1.17,0,0,0,.29.43,2.17,2.17,0,0,0,1.53.48,4,4,0,0,0,1.54-.31,24.08,24.08,0,0,0,5-1.92c1.6-.83,3.18-1.73,4.74-2.72.9-.56,1.77-1.14,2.64-1.74s1.81-1.12,2.68-1.74q2.26-1.6,4.47-3.3c1.37-1,2.76-2,4.17-3,1.7-1.22,3.34-2.39,4.92-3.49.87-.59,1.69-1.21,2.48-1.85s1.62-1.26,2.49-1.85a16.26,16.26,0,0,1,1.41-.89,16.26,16.26,0,0,0,1.41-.89,4.79,4.79,0,0,1,.91-.82,3.24,3.24,0,0,1,1.13-.57,46.26,46.26,0,0,1-3.71,7c-1.45,2.24-2.83,4.46-4.16,6.65-1,1.63-2,3.25-3.14,4.84a27,27,0,0,1-3.82,4.39l-1.6,1.34a15.54,15.54,0,0,1-2.07,1.43,7.55,7.55,0,0,1-2.24.86,2.54,2.54,0,0,1-2-.37,2.26,2.26,0,0,1-.84-2c0-1,0-1.88,0-2.77a4.86,4.86,0,0,0-.43-2.18c-.29-.55-1-.63-2.17-.23a6.12,6.12,0,0,0-2.66,1.92,4.47,4.47,0,0,0-1.07,3,3.87,3.87,0,0,0,.41,1.76,5.11,5.11,0,0,0,1,1.39,6,6,0,0,0,1.42,1.05c.53.3,1.07.58,1.61.84l.09,0a14.31,14.31,0,0,0,6.39,1.28,20.18,20.18,0,0,0,6.28-1.22,24.67,24.67,0,0,0,5.72-3,26.26,26.26,0,0,0,4.72-4.18,37.18,37.18,0,0,0,4.4-6.16q1.81-3.24,3.63-6.66,1.11-2.1,2.18-4.21c.72-1.4,1.51-2.79,2.37-4.14a11.51,11.51,0,0,1,1.2-1.54l1.37-1.47a3.84,3.84,0,0,1,.46-.54c.29-.3.56-.62.83-1s.51-.66.73-1,.3-.45.24-.47a7.65,7.65,0,0,0-1.85-.34,11.22,11.22,0,0,1-1.87-.25,22.57,22.57,0,0,1-2.29-.65,7.64,7.64,0,0,0-2.37-.39,4.6,4.6,0,0,0-2.11.4,13.91,13.91,0,0,0-1.84,1.13q-2.31,1.56-4.38,3.26c-1.39,1.12-2.82,2.22-4.27,3.3l-5.07,3.71-.19.13a.62.62,0,0,0-.7-.2,6.83,6.83,0,0,0-2.19,1,17.61,17.61,0,0,0-2.31,1.82c-.72.66-1.16,1.06-1.33,1.2-1.21,1-2.41,2-3.62,2.91q-2.54,1.53-5,3.15c-1.21.81-2.42,1.57-3.64,2.29a26.78,26.78,0,0,1-3.88,1.88l-.5.22c-.4.09-.8.17-1.19.23a5,5,0,0,1-1.67-.17,1.77,1.77,0,0,1-1.26-1,2.22,2.22,0,0,1,.08-1.94,8,8,0,0,1,1.4-2M249.62,62a35.55,35.55,0,0,1,.5-5.88,14.2,14.2,0,0,1,2.42-5.8A16.37,16.37,0,0,1,254.4,48a18,18,0,0,1,2.25-2,7.17,7.17,0,0,1,3.2-1.34,4.74,4.74,0,0,1,.75-.06A6.08,6.08,0,0,1,263,45a6.85,6.85,0,0,1,2.51,1.74,6.33,6.33,0,0,1,1.51,2.79,9.09,9.09,0,0,1-.36,5.44c-.63,1.74-1.3,3.38-2,4.88a31,31,0,0,1-4.54,6.81,42.85,42.85,0,0,1-6.08,5.69l-1.09.87a2.1,2.1,0,0,1-1.18.48,1.35,1.35,0,0,1-1-.32,1.05,1.05,0,0,1-.34-.52,21.72,21.72,0,0,1-.88-5.45c-.08-1.86-.07-3.67,0-5.38m2.87,68a8,8,0,0,1-2.11,1.67l-.08.05c-1.09.55-2.2,1.15-3.29,1.79a26.89,26.89,0,0,1-3.64,1.72c-.68.24-1.35.44-2,.62a20.49,20.49,0,0,1-2.15.42,16.41,16.41,0,0,1-2,.21h0a19.13,19.13,0,0,1-4-.19,14.58,14.58,0,0,1-5.67-2.1,16,16,0,0,1-6.64-6.91,19.45,19.45,0,0,1-1.87-9.21,26.71,26.71,0,0,1,1.55-8.24,38.63,38.63,0,0,1,3.7-7.56,60,60,0,0,1,5-6.85,73.91,73.91,0,0,1,5.84-6.14c.5-.46,1.11-1,1.86-1.79a4.51,4.51,0,0,1,3-1.41h.44a2.44,2.44,0,0,1,2.34,2c.09.57.19,1.11.28,1.61.43,1.84.92,3.66,1.48,5.39s1.07,3.63,1.5,5.46A34.51,34.51,0,0,1,247,105a34,34,0,0,0,.88,4.26v0c.33,1.46.71,2.92,1.14,4.36s.87,3,1.27,4.47.85,3,1.37,4.53a29,29,0,0,1,1.23,4.79,3,3,0,0,1-.41,2.53m12.74-18.8a12.89,12.89,0,0,1-1.46,4.55c-.5.89-1.15,1.8-2.17,1.83h0a1.42,1.42,0,0,1-.57-.09c-1.25-.45-1.3-2.15-1.33-2.88a1.09,1.09,0,0,1,0-.26,3,3,0,0,0-.09-.34c-.16-.44-.32-.93-.47-1.47s-.31-1.1-.43-1.69-.22-1-.29-1.3a.83.83,0,0,1,0-.22,3.26,3.26,0,0,0-.44-1.54,6.94,6.94,0,0,1-.57-1.71c-.16-.69-.32-1.39-.48-2.11s-.31-1.4-.44-2a5.13,5.13,0,0,0-.2-.85,1.34,1.34,0,0,1-.07-.18,1.8,1.8,0,0,1,.15-1.48,2.15,2.15,0,0,1,1.4-.93,3.66,3.66,0,0,1,.74-.1,4.78,4.78,0,0,1,2.15.5c.57.26.83.35.94.39a3.89,3.89,0,0,1,2.72,2.52,13.61,13.61,0,0,1,1.06,4.36,21.37,21.37,0,0,1-.15,5m92.23-.34q-2.88,3.38-6,6.61a45.64,45.64,0,0,1-3.86,3.5,17.35,17.35,0,0,1-4.49,2.61,4.54,4.54,0,0,1-2.6.23,2.7,2.7,0,0,1-1.76-1.79,3,3,0,0,1-.21-1.87,10.61,10.61,0,0,1,.61-2,14.45,14.45,0,0,1,1-1.93c.37-.61.68-1.17.95-1.67.73-1.17,1.46-2.31,2.19-3.41a38.75,38.75,0,0,1,2.37-3.23c.85-1,1.68-2.08,2.47-3.12s1.65-2,2.57-3q2.38-2.69,5.2-5.51A19.78,19.78,0,0,1,362.15,92a11.79,11.79,0,0,1,2.92-.71,2.56,2.56,0,0,1,2.59,1.09,2.77,2.77,0,0,1,.39,2.37,19.58,19.58,0,0,1-.8,2.35,26.54,26.54,0,0,1-2,3.47l-2.28,3.27a88.3,88.3,0,0,1-5.47,7m86,11.82q-3,2.8-6.2,5.43-2.32,1.89-4.72,3.65a12.5,12.5,0,0,1-5.36,2.25h-.09a3.9,3.9,0,0,1-3.6-.86,3.29,3.29,0,0,1-.86-3.58,14.16,14.16,0,0,1,2.82-5.77,50.69,50.69,0,0,1,4.33-4.75q2.58-2.48,5.22-4.89t5.61-4.64l2.54-1.89a30.82,30.82,0,0,1,3.14-2,17.1,17.1,0,0,1,3.39-1.48,6.2,6.2,0,0,1,3.26-.17,3.25,3.25,0,0,1,1.68,1.31,3,3,0,0,1,.55,1.9,7.41,7.41,0,0,1-.79,2.57,19.14,19.14,0,0,1-1.53,2.53,27.25,27.25,0,0,1-1.86,2.39l-1.8,2a65.16,65.16,0,0,1-5.73,6m47,8.08q-3.35,2.92-6.89,5.68a48.45,48.45,0,0,1-4.35,2.91,17.14,17.14,0,0,1-4.84,1.93,4.5,4.5,0,0,1-2.61-.15,2.7,2.7,0,0,1-1.5-2,3,3,0,0,1,.07-1.88,10,10,0,0,1,.88-1.89,14,14,0,0,1,1.24-1.77c.44-.56.84-1.06,1.18-1.52.89-1,1.78-2.07,2.66-3.06a39.87,39.87,0,0,1,2.82-2.85c1-.91,2-1.82,2.9-2.74a37.61,37.61,0,0,1,3-2.62q2.74-2.33,6-4.71a19.75,19.75,0,0,1,6.84-3.33,11.55,11.55,0,0,1,3-.28,2.58,2.58,0,0,1,2.42,1.44,2.79,2.79,0,0,1,.05,2.41,17.72,17.72,0,0,1-1.13,2.22,26.54,26.54,0,0,1-2.52,3.13l-2.74,2.91q-3.09,3.27-6.44,6.19"/><path class="cls-1" d="M393.12,153.06c-1.69,1.66-4.22,2.42-7.15,2.72-1,1.42-1.42,2.14-2.36,3.56a5.32,5.32,0,0,1-5.86,2.17,2.14,2.14,0,0,1-1.72-2.39,3.64,3.64,0,0,1,.66-1.55c1.37-1.95,5.88-2.7,7.18-3.13.08-.11.35-.53.75-1.14a4.63,4.63,0,0,1-2.83.71c-1.13-.14-1.93-1.14-1.55-2.71.25-1,3.12-4.28,4.09-5.94.3-.57.42-1,.2-1.22a1,1,0,0,1,.06-1.29,2,2,0,0,1,1.83-.61c1.27.33,1.24,1.38.88,2.33-.63,1.74-3.46,5.33-3.75,6.19a.87.87,0,0,0,.7,1.22,2.22,2.22,0,0,0,1.74-.8c2-3.14,4.85-7.36,4.85-7.36a.36.36,0,0,1,.34-.16l2.19.31c.19,0,.17.14.05.31-2.44,3.76-3.65,5.64-6,9.43.95-.3,2.89-.42,4.51-2a18.74,18.74,0,0,0,1.83-2.19c.21-.31.67-.08.94.23a1.17,1.17,0,0,1,.11,1.29,11.11,11.11,0,0,1-1.66,2.06m-10.52,3.36c-1.74.29-4.08.93-4.54,1.81-.57,1.07.46,1.46,1.36,1.35a2.74,2.74,0,0,0,2-1.32c.48-.74.72-1.1,1.21-1.84"/><path class="cls-1" d="M404.57,155.54A3.86,3.86,0,0,1,402,156a4.76,4.76,0,0,1-2.48-1.21,8.36,8.36,0,0,1-5.38,1.65,2.59,2.59,0,0,1-2.26-3.3,7.54,7.54,0,0,1,1.39-3.17c2.21-3.16,6.23-5.42,9-5a2.63,2.63,0,0,1,2.23,3.36,7.81,7.81,0,0,1-1.43,3.12,14.44,14.44,0,0,1-1.8,2,2.21,2.21,0,0,0,1.45.65c1.19,0,2.39-1.47,3.26-2.7a.49.49,0,0,1,.68-.14,1.24,1.24,0,0,1,.52,1.34,9.18,9.18,0,0,1-2.55,2.9m-8.29-5.17a5.5,5.5,0,0,0-1,2.19c-.13.83.15,1.41.85,1.52a3.74,3.74,0,0,0,2.38-.83,4.78,4.78,0,0,1-.17-2.88,8.34,8.34,0,0,1,1.38-2.88,8.58,8.58,0,0,0-3.44,2.88m3.9.25a3.49,3.49,0,0,0,0,1.07c.16-.21.36-.43.52-.65a5.75,5.75,0,0,0,1-2.21,1.56,1.56,0,0,0-.21-1.18,6.66,6.66,0,0,0-1.37,3"/><path class="cls-1" d="M411.25,158.92a2.35,2.35,0,0,1-2.14-2.46c-1,.8-2.8,1.85-4.54,1.3a2.09,2.09,0,0,1-1.34-2.38,3.7,3.7,0,0,1,.6-1.39c1.9-2.81,2.85-4.21,4.78-7a3.23,3.23,0,0,1,2.55-.73c.51.07.81.38.47.9-1.75,2.65-2.62,4-4.33,6.64a2.94,2.94,0,0,0-.46,1.05.62.62,0,0,0,.33.78c.81.35,2.11-.35,2.75-1.31,1.68-2.48,2.53-3.71,4.24-6.19.34-.52,2.1-.87,2.92-.68.39.09.61.32.31.73-1.62,2.28-2.43,3.43-4,5.72a5.09,5.09,0,0,0-.88,1.8c-.08.41,0,.74.43.87,1.83.58,4-2.26,4.66-3.15.32-.37.77-.17,1,.21a1.27,1.27,0,0,1,0,1.29c-1.76,2.7-4.73,4.51-7.36,4"/><path class="cls-1" d="M422.22,160.81c-2.13-.39-2.77-1.76-2.51-3.17a4.33,4.33,0,0,1,.75-1.67l2.68-3.69c.22-.32.49-.76.27-1.05s-.37-.37-.88-.31a2,2,0,0,0-1.44.77s-.73,1.06-1.35,1.86a24.15,24.15,0,0,1-2.77,3.26.25.25,0,0,1-.19.06,1.24,1.24,0,0,1-.47-.7,2.16,2.16,0,0,1,0-1.18,1.57,1.57,0,0,1,.14-.25c.14-.22.93-1.12,2.14-2.73.45-.59,1-1.4,1.37-2a1.08,1.08,0,0,1-.09-.69,2.23,2.23,0,0,1,2.23-1.91,1.49,1.49,0,0,1,1.6,1.66.59.59,0,0,0-.07.36.48.48,0,0,0,.58.26,2,2,0,0,0,.55-.27,1.14,1.14,0,0,1,1.15.1c.52.38.77.58,1.29,1a.45.45,0,0,1,.12.67c-1.24,1.67-1.86,2.5-3.08,4.18a6.42,6.42,0,0,0-1.18,2.22c-.08.41,0,.7.36.86,1.93.82,4.31-2.57,5-3.31.16-.18.57.12.78.46a1.16,1.16,0,0,1,0,1.29c-1.23,1.81-4.2,4.44-7,3.93"/><path class="cls-1" d="M445.81,163.29a7.71,7.71,0,0,1-6.25,1.18c-2.35-.49-4.12-2.26-3.48-4.73,1-4,5.72-7.09,10.05-6.57a1.82,1.82,0,0,1,1.63,2.13c-.23,1-1.58,2.57-2.75,2.32a.82.82,0,0,1-.69-1,2,2,0,0,1,2.41-1.38c.1-.47-.36-.63-.72-.71-2.2-.47-6.2,4.09-6.61,6-.27,1.23.27,1.89,1.5,2.15a5.23,5.23,0,0,0,3.85-1,14.19,14.19,0,0,0,2-1.87.47.47,0,0,1,.44-.18,1.08,1.08,0,0,1,.73,1.24c-.19.82-1.45,1.83-2.12,2.33"/><path class="cls-1" d="M452.69,167.12a4.45,4.45,0,0,1-.87-.28,2.33,2.33,0,0,1-1.27-2.72,4.43,4.43,0,0,1,.89-1.74l1.85-2.32c.71-.88,1.45-2.34.94-2.65s-1.43.17-2.34,1a18.57,18.57,0,0,0-2,2.11l-3.68,4.72a.33.33,0,0,1-.44.18l-2.46-.53c-.24-.05-.18-.19-.09-.3q6.38-8.37,12.94-16.59a4.66,4.66,0,0,1,3.21-1.12c.68.07,1,.47.24,1.38-2.56,3.16-3.82,4.74-6.33,7.92a3.73,3.73,0,0,1,3-.68c1.27.35,1.79,1.65,1.24,3.14s-3.21,4-3.53,5.38a.66.66,0,0,0,.28.81c1.4.81,3.39-1,5-3,.16-.17.58.05.84.42a1.09,1.09,0,0,1,0,1.29c-2.64,3.42-5.54,4-7.43,3.6"/><path class="cls-1" d="M469.33,168.82a3.7,3.7,0,0,1-2.59.26,4.69,4.69,0,0,1-2.33-1.41,8.15,8.15,0,0,1-5.42,1.19c-1.71-.4-2.35-1.75-1.95-3.47a7.76,7.76,0,0,1,1.64-3c2.43-3,6.57-4.89,9.22-4.24,1.7.42,2.35,1.82,1.91,3.54a7.87,7.87,0,0,1-1.67,3,13.74,13.74,0,0,1-1.94,1.87,2.14,2.14,0,0,0,1.37.77c1.17.13,2.48-1.27,3.43-2.42a.48.48,0,0,1,.68-.08,1.24,1.24,0,0,1,.4,1.38,9.21,9.21,0,0,1-2.75,2.67M461.62,163a5.44,5.44,0,0,0-1.16,2.1c-.2.82,0,1.43.7,1.59a3.62,3.62,0,0,0,2.4-.63,4.84,4.84,0,0,1,.09-2.88,8.19,8.19,0,0,1,1.59-2.76,8.61,8.61,0,0,0-3.62,2.58m3.81.58a3.83,3.83,0,0,0-.05,1.07c.18-.2.39-.4.56-.6a5.78,5.78,0,0,0,1.19-2.12,1.53,1.53,0,0,0-.11-1.2,6.84,6.84,0,0,0-1.59,2.85"/><path class="cls-1" d="M470.71,171.49a2.47,2.47,0,0,1-2.13-3.13,4.12,4.12,0,0,1,.89-1.7c2.11-2.52,3.17-3.78,5.31-6.3a.36.36,0,0,1,.35-.13l2.46.64c.18,0,.12.15,0,.31-1.94,2.35-2.9,3.53-4.82,5.89-.87,1.07-.89,1.75-.52,2,1.44,1.2,4.15-1.66,5.06-2.72.24-.28.69,0,.89.32a1.15,1.15,0,0,1,0,1.27c-1.43,1.83-4.18,4.24-7.48,3.52m6.58-12.22a.76.76,0,0,1-.52-1,2.7,2.7,0,0,1,.72-1.15c.93-1,2.35-1.65,3.16-1.44a.74.74,0,0,1,.51,1,2.82,2.82,0,0,1-.73,1.18,3.94,3.94,0,0,1-3.14,1.41"/><path class="cls-1" d="M485,172.9a7.63,7.63,0,0,1-6.25.86c-2.3-.61-4-2.47-3.2-4.9,1.23-3.93,6-6.79,10.29-6.06a1.82,1.82,0,0,1,1.51,2.22c-.28,1-1.7,2.49-2.85,2.18a.82.82,0,0,1-.63-1,1.94,1.94,0,0,1,2.46-1.26c.13-.47-.32-.65-.68-.75-2.15-.58-6.35,3.77-6.86,5.68-.33,1.22.18,1.91,1.37,2.23a5.16,5.16,0,0,0,3.87-.76,13,13,0,0,0,2.08-1.77.47.47,0,0,1,.46-.15,1.07,1.07,0,0,1,.65,1.27c-.23.81-1.52,1.76-2.22,2.22"/><path class="cls-1" d="M494.39,175.54a7.68,7.68,0,0,1-6.28.77c-2.26-.63-3.93-2.36-3.14-4.79a9.66,9.66,0,0,1,10.36-6.08c1,.29,1.81.87,1.48,2-.84,2.88-5.78,4.62-8.49,4.67-.05.13-.08.19-.12.31-.4,1.2.15,1.91,1.34,2.25a5.16,5.16,0,0,0,3.87-.72,13,13,0,0,0,2.13-1.73.46.46,0,0,1,.45-.15,1,1,0,0,1,.61,1.27c-.23.81-1.54,1.74-2.21,2.21m.64-8.75c-1.55-.44-5.14,2.86-6,4,1.78-.29,5.78-1.49,6.33-3.39a.46.46,0,0,0-.36-.61"/><path class="cls-2" d="M5.69,53.69a843.77,843.77,0,0,1,563.46-.53"/><path class="cls-1" d="M8,59.29a6,6,0,1,1,3.67-7.64A6,6,0,0,1,8,59.29"/><path class="cls-1" d="M566.88,58.76a6,6,0,1,0-3.68-7.63,6,6,0,0,0,3.68,7.63"/><path class="cls-2" d="M171.44,222.42H22.13a14.67,14.67,0,0,1-13.57-9.08"/><path class="cls-1" d="M171.14,216.43a6,6,0,1,1-6,6,6,6,0,0,1,6-6"/><path class="cls-1" d="M14.55,212.39a6,6,0,1,0-4.64,7.09,6,6,0,0,0,4.64-7.09"/><path class="cls-2" d="M410.76,222.42H560.08a14.66,14.66,0,0,0,13.56-9.08"/><path class="cls-1" d="M411.06,228.41a6,6,0,1,1,6-6,6,6,0,0,1-6,6"/><path class="cls-1" d="M579.38,214.84a6,6,0,1,0-7.09,4.64,6,6,0,0,0,7.09-4.64"/><path class="cls-3" d="M307.15,210.19a118.49,118.49,0,0,0-3.85-14.61c-2.31-6.54-6.54-15.38-6.54-15.38l10.39,12.31,4.23-36.14,3.45,26.91,10.77-13.46L321,192.51a119.92,119.92,0,0,1,17.68-15.9c10-7.17,17.3-7.17,17.3-7.17S338.29,181,335.21,188.66s-3.84,21.53-3.84,21.53H307.15"/><path class="cls-4" d="M287.81,247.83c-44.89,0-81.27-11.38-81.27-26.49,0-8.57,36.38-15.52,81.27-15.52,6.36,0,12.55.14,18.49.41.54,2.35.85,4,.85,4h24.22s0-.72.14-1.94c22.59,2.76,37.56,7.59,37.56,13.09,0,15.32-36.38,26.49-81.26,26.49"/><path class="cls-5" d="M331.37,210.19H307.15s-.31-1.6-.85-4c9.08.4,17.58,1.09,25.21,2-.1,1.22-.14,1.94-.14,1.94"/><path class="cls-3" d="M226.18,192s-1.92-7.15-3.46-12.53S220,167.05,220,167.05l13.84,16.31s2.69-20.77,3.84-27.69a110.9,110.9,0,0,1,4.23-15.54v31.69l14.61-10.38-6.92,18.46,18.07-16.67-3.94,16.64,12-1.13L265.36,192Z"/><path class="cls-6" d="M228.07,207.27s-3.84-13.29-4.61-16.75a26.65,26.65,0,0,1,0-8.24l8.07,12.5,1.16-32.2,5.76,22.34,13.46-22.34-5.77,28.32s8.08-8.84,13.46-10.76,12.69-1.67,12.69-1.67-8.46,5.13-11.15,8.2a56.46,56.46,0,0,0-5.39,7.9l25.77-9.65s-7.31,7.9-10.77,12.13a42.09,42.09,0,0,0-5.69,10.13Z"/><path class="cls-7" d="M227.91,218s-6.15-22.56-9.23-30.76-15.38-26.66-15.38-26.66,25.63,23.59,28.71,28.71S245.34,218,245.34,218Z"/><path class="cls-7" d="M235.6,217.94s1-15.38,0-24.6a115.3,115.3,0,0,1,0-20l10.25,30.25s8.21-19.48,19.49-30.25,18.45-12.81,18.45-12.81-23.08,38.95-24.32,47.16c-1.83,12.05-2.59,10.25-2.59,10.25Z"/><path class="cls-7" d="M257,217.89a119.56,119.56,0,0,0-3.84-14.61c-2.31-6.53-6.54-15.37-6.54-15.37L257,200.21l4.23-36.14L264.69,191l10.77-13.46-4.62,22.69a119.32,119.32,0,0,1,17.69-15.89c10-7.18,17.3-7.18,17.3-7.18s-17.69,11.53-20.76,19.23-3.85,21.52-3.85,21.52Z"/><path class="cls-7" d="M280.46,218s-3.85-13.29-4.62-16.76a26.58,26.58,0,0,1,0-8.23l8.08,12.49,1.15-32.19,5.77,22.34,13.45-22.34-5.76,28.32s8.07-8.84,13.45-10.77,12.69-1.66,12.69-1.66-8.46,5.12-11.15,8.2a56,56,0,0,0-5.38,7.9l25.76-9.65s-7.31,7.9-10.77,12.13a42.12,42.12,0,0,0-5.69,10.12Z"/><path class="cls-7" d="M227.94,217.92c.82-1.32,121.5-1.6,127.37,0-5.57,6.87-16.12,14.76-68.67,14.76s-54.39-8.34-58.7-14.72"/><path class="cls-8" d="M310.39,151.44c-1-2.91-3-31.35-.62-37.56s7.81-18.19,9.17-17.93,1.15,4.46,1.15,4.46a1.43,1.43,0,0,1,2,.74c.77,1.4-.47,3.31-.47,3.31a2.68,2.68,0,0,1,2.43,1.1c.69,1.24-1.06,5.07-1.06,5.07s2.3-.66,2.71.74-.18,2.95-.6,4.81.95,8.24.66,8.6,2-1.7,2.57-.82.25,3.94-.79,5.34c0,0,1.89.78,2.23,1.61s-.65,3.42-1.59,4.55c0,0,1.72.27,2.15,1s-2.08,2.78-2.48,3.82a4.25,4.25,0,0,1,2.15,1.25c.61.88-2.53,2.63-3.38,3.71,0,0,2-.09,2.24,1.21s-1.77,1.39-2.45,2.57c0,0,2.08.69,1.78,1.67s-2.12.56-2.79,1.75-2,3.56-3,4.13-12-5.18-12-5.18"/><path class="cls-9" d="M295,139.5c-11.56-.6-12.11,10.34-11.24,12.92s9.07,2.67,11.8,3.49,1.8,9.57,11.92,15.59,15.47,8.18,17.32,15.93,3.89,11.52,5.84,11.8,2.09-4.27,2.09-4.27,3.74,6.72,6,6.34,1.74-5.08,1.74-5.08,2.61,3.72,4.92,2.43-1.22-6.51-1.22-6.51,4.79,5.33,7.35,3-3.82-6.38-3.82-6.38,5.39,2,6.38-.7-4.74-4.77-4.74-4.77,5.54.56,6-2.26-18.56-6.71-23.05-9.4S325.17,141.06,295,139.5"/><path class="cls-10" d="M354.08,188.06c1-2.7-4.74-4.77-4.74-4.77s5.54.56,6-2.26c.24-1.41-4.46-3.1-9.76-4.77,2.49,1.59,5.33,3.72,4.66,4.68-1.1,1.57-5.84-.08-5.84-.08s4.45,2.87,3.62,4.87-4.37-.1-4.37-.1,2.32,1.82,1.05,3.35-3.6-1-3.6-1,1.82,3.17.11,4.23-3.54-2.11-3.54-2.11.29,4.28-1.61,4.57-3.38-5.91-3.38-5.91-1.29,3.17-2.89,3-.62-12.22-4.36-13.46-8-9.73-11.5-17.32-14.77-10.4-19.34-9.64c-4.23.71-10.25-.26-11.13-.41a5.85,5.85,0,0,0,.26,1.53c.86,2.58,9.07,2.67,11.8,3.49s1.8,9.57,11.92,15.59,15.47,8.18,17.32,15.93,3.89,11.52,5.84,11.8,2.09-4.27,2.09-4.27,3.74,6.72,6,6.34,1.74-5.08,1.74-5.08,2.61,3.72,4.92,2.43-1.22-6.51-1.22-6.51,4.79,5.33,7.35,3-3.82-6.38-3.82-6.38,5.39,2,6.38-.7"/><path class="cls-11" d="M270.41,164.22s6.18-10.41,12.17-13.7c2.12-1.17,4.07,2.15,3,3.2s-10.12,5.41-15.19,10.5"/><path class="cls-12" d="M285.35,151.39a13.85,13.85,0,0,1-5,3.92c-4.6,2.4-9.91,8.91-9.91,8.91,5.07-5.09,14.08-9.4,15.19-10.5.5-.5.31-1.53-.25-2.33"/><path class="cls-11" d="M289.43,146.41a1.41,1.41,0,1,1-1.67-1.09,1.41,1.41,0,0,1,1.67,1.09"/><path class="cls-13" d="M287.57,146.34a.31.31,0,0,1-.25.38.32.32,0,0,1-.39-.25.34.34,0,0,1,.26-.39.33.33,0,0,1,.38.26"/><path class="cls-14" d="M314.91,150.55c1.55-2.74,27.2-23.28,36.5-25.5s28.43-5.81,30-4.53-2.92,3.89-2.92,3.89,2.25.52,1.89,2.09-3.91,1.83-3.91,1.83,2.44,1.3,2.12,2.69-6.44,2.52-6.44,2.52,3.69,1.41,2.85,2.68-3.17,1.82-5.58,2.72-6.94,6.25-7.68,6.26,4.29.45,4.22,1.53-3.59,2.82-6.35,2.91c0,0,1.71,2.05,1.34,2.87s-4.25,1.75-6.63,1.75c0,0,2,1.57,1.81,2.43s-5.53.18-7.08.55c0,0,1.67,1.48,1.6,2.56s-6-.29-8.17-.26c0,0,2.74,1.56,1.76,2.61s-3.72-.5-5.79-.25c0,0,2.06,2.13.69,2.54s-3.35-1.34-5.42-1.09-6.21.75-8.12.3-10.66-13.1-10.66-13.1"/><path class="cls-8" d="M372.62,124.33s2.12.31,1.24,1.75-3.61,1.35-3.61,1.35,2.89,2.51,1.61,3.3a54.82,54.82,0,0,1-6.62,2.48s3.67,2.32,1.13,3-10.48,4.14-10.48,4.14,2.53,1.69,1.43,3.26-7.05,2-7.05,2,4.23,3,2.36,4.76-10.06.76-10.06.76,5.45,2.55,3.52,3.75-6.73-1.76-6.73-1.76,1.74,3.52.33,4.1-3.82-.89-3.82-.89,1.29,2.32-.38,3.21-2.8-2.12-6.38-1.68c-2.75.35-9.53-3.28-12.54-5,2.64,3.68,7.62,10.41,9,10.73,1.91.45,6.05-.05,8.12-.3s4,1.5,5.42,1.09-.69-2.54-.69-2.54c2.07-.25,4.82,1.3,5.79.25s-1.76-2.61-1.76-2.61c2.2,0,8.1,1.35,8.17.26s-1.6-2.56-1.6-2.56c1.55-.37,6.88.32,7.08-.55s-1.81-2.43-1.81-2.43c2.38,0,6.25-.92,6.63-1.75s-1.34-2.87-1.34-2.87c2.76-.09,6.28-1.83,6.35-2.91s-4.95-1.52-4.22-1.53,5.28-5.36,7.68-6.26,4.73-1.46,5.58-2.72-2.85-2.68-2.85-2.68,6.11-1.13,6.44-2.52-2.12-2.69-2.12-2.69,3.54-.27,3.91-1.83-1.89-2.09-1.89-2.09,4.45-2.62,2.92-3.89c-1.91,2.66-8.76,3.81-8.76,3.81"/><path class="cls-7" d="M316.28,218s-1.93-7.14-3.46-12.53S310.13,193,310.13,193L324,209.31s2.69-20.76,3.84-27.68A110.78,110.78,0,0,1,332,166.08v31.69l14.61-10.38-6.92,18.46,18.07-16.66-3.94,16.64,12-1.13L355.46,218Z"/></g></g></svg>