<svg xmlns="http://www.w3.org/2000/svg" viewBox="0 0 754.9 282.4"><defs><style>.cls-1{fill:#434345;}.cls-2{fill:#d71a1b;}.cls-3{fill:#d61219;}</style></defs><g id="Warstwa_2" data-name="Warstwa 2"><g id="Warstwa_1-2" data-name="Warstwa 1"><path class="cls-1" d="M27.9,263.85c0,5.8-4.62,7.92-9.43,7.92h-4.9V282H10.65v-25.9h8.22C24.89,256.12,27.9,259,27.9,263.85Zm-9.43,5.41c4,0,6.42-2.12,6.42-5.41,0-4-2.77-5.22-6.82-5.22h-4.5v10.63Z"/><path class="cls-1" d="M50.88,263.66c0,4.71-3.57,7-7.5,7.53L52,282H48.23l-8.3-10.63H36.56V282H33.63v-25.9h8.22C47.87,256.12,50.88,258.83,50.88,263.66Zm-9.43,5.22c4,0,6.42-1.94,6.42-5.22,0-4-2.77-5-6.82-5H36.56v10.25Z"/><path class="cls-1" d="M68.73,255.73c7.34,0,11.23,3.87,11.23,12.76S76.51,282.4,67.72,282.4c-7.34,0-11-4.06-11-12.94S59.86,255.73,68.73,255.73Zm-.6,24.16c6.61,0,8.82-4.44,8.82-11.4,0-6.19-1.76-10.24-8.42-10.24s-8.83,4.36-8.83,11.21C59.7,275.6,61.47,279.89,68.13,279.89Z"/><path class="cls-1" d="M100.41,282h-1.6l-8.62-21.26L88.78,282h-3l1.81-25.9h3.81l8.3,20.49,8.15-20.49h3.81l1.8,25.9h-3L109,260.76Z"/><path class="cls-1" d="M131.3,255.73c7.34,0,11.23,3.87,11.23,12.76s-3.45,13.91-12.24,13.91c-7.34,0-11-4.06-11-12.94S122.43,255.73,131.3,255.73Zm-.6,24.16c6.61,0,8.82-4.44,8.82-11.4,0-6.19-1.76-10.24-8.42-10.24s-8.83,4.36-8.83,11.21C122.27,275.6,124,279.89,130.7,279.89Z"/><path class="cls-1" d="M157.53,258.59V282H154.6V258.59h-8.26v-2.47h19.45v2.47Z"/><path class="cls-1" d="M173.73,256.12V282H170.8v-25.9Z"/><path class="cls-1" d="M192.18,255.73c7.35,0,11.24,3.87,11.24,12.76S200,282.4,191.18,282.4c-7.34,0-11-4.06-11-12.94S183.32,255.73,192.18,255.73Zm-.6,24.16c6.62,0,8.83-4.44,8.83-11.4,0-6.19-1.77-10.24-8.43-10.24s-8.82,4.36-8.82,11.21C183.16,275.6,184.92,279.89,191.58,279.89Z"/><path class="cls-1" d="M230.21,256.12V282H226.8l-14-21.26V282h-2.93v-25.9h3.41l14,21.26V256.12Z"/><path class="cls-1" d="M264.7,263.85c0,5.8-4.61,7.92-9.42,7.92h-4.9V282h-2.93v-25.9h8.23C261.69,256.12,264.7,259,264.7,263.85Zm-9.42,5.41c4,0,6.41-2.12,6.41-5.41,0-4-2.76-5.22-6.81-5.22h-4.5v10.63Z"/><path class="cls-1" d="M287.69,263.66c0,4.71-3.57,7-7.5,7.53L288.85,282H285l-8.31-10.63h-3.36V282h-2.93v-25.9h8.22C284.68,256.12,287.69,258.83,287.69,263.66Zm-9.43,5.22c4,0,6.42-1.94,6.42-5.22,0-4-2.77-5-6.82-5h-4.49v10.25Z"/><path class="cls-1" d="M305.53,255.73c7.35,0,11.24,3.87,11.24,12.76s-3.45,13.91-12.24,13.91c-7.34,0-11-4.06-11-12.94S296.67,255.73,305.53,255.73Zm-.6,24.16c6.62,0,8.83-4.44,8.83-11.4,0-6.19-1.77-10.24-8.43-10.24s-8.82,4.36-8.82,11.21C296.51,275.6,298.27,279.89,304.93,279.89Z"/><path class="cls-1" d="M342.24,270.42v9.86a20.62,20.62,0,0,1-8.63,2.12c-8.38,0-11.63-6.07-11.63-13.14,0-7.42,2.81-13.53,11.87-13.53a22,22,0,0,1,8,1.36l-1,2.32a18.44,18.44,0,0,0-6.82-1.16c-6.82,0-9.06,4.83-9.06,11,0,5.72,2.2,10.63,9,10.63a22.42,22.42,0,0,0,5.3-.93v-8.54Z"/><path class="cls-1" d="M366.5,263.66c0,4.71-3.57,7-7.5,7.53L367.67,282h-3.82l-8.3-10.63h-3.37V282h-2.93v-25.9h8.23C363.49,256.12,366.5,258.83,366.5,263.66Zm-9.43,5.22c4,0,6.42-1.94,6.42-5.22,0-4-2.76-5-6.82-5h-4.49v10.25Z"/><path class="cls-1" d="M383.91,256l9.83,26h-3.25l-2.73-7.35H376.53L373.84,282h-3.13l10-26Zm-1.77,3.6-4.61,12.75h9.23Z"/><path class="cls-1" d="M412.59,282H411l-8.62-21.26L401,282h-3l1.8-25.9h3.81l8.31,20.49L420,256.12h3.81l1.8,25.9h-3l-1.41-21.26Z"/><path class="cls-2" d="M28.49,9c0,6.44-5.12,8.8-10.46,8.8H12.6V29.18H9.35V.43h9.12C25.15.43,28.49,3.65,28.49,9ZM18,15c4.45,0,7.12-2.36,7.12-6,0-4.46-3.07-5.79-7.57-5.79h-5V15Z"/><path class="cls-2" d="M46.88,0C55,0,59.35,4.29,59.35,14.16S55.52,29.61,45.77,29.61c-8.15,0-12.25-4.51-12.25-14.38S37,0,46.88,0Zm-.67,26.82c7.35,0,9.8-4.94,9.8-12.66,0-6.87-2-11.37-9.35-11.37s-9.8,4.85-9.8,12.44C36.86,22.05,38.82,26.82,46.21,26.82Z"/><path class="cls-2" d="M69.73,26.43H83.22v2.75H66.48V.43h3.25Z"/><path class="cls-2" d="M91.59.43V29.18H88.34V.43Z"/><path class="cls-2" d="M99.61,25.32a26.65,26.65,0,0,0,8.06,1.5c4.27,0,6.63-1.93,6.63-5.15,0-3.65-3.16-4.89-7-5.92-5.12-1.38-8.5-3.14-8.5-8S103,0,108.6,0a23.21,23.21,0,0,1,7.7,1.29l-.89,2.79a23.56,23.56,0,0,0-6.94-1.29c-3.57,0-6.33,1.42-6.33,4.42,0,3.47,3.21,4.68,6.91,5.75,5.38,1.54,8.59,3.77,8.59,8.28,0,5.36-4.36,8.37-10,8.37a20.93,20.93,0,0,1-8.9-1.72Z"/><path class="cls-2" d="M128,12.87H144V.43h3.25V29.18H144V15.66H128V29.18h-3.25V.43H128Z"/><path class="cls-2" d="M19.4,195.15c-3.08-3.43-4.36-6-4.69-9.82-.47-5.88,4.63-9.57,10.73-9.57,5.3,0,9.73,3,9.86,8.08,0,5.62-5.23,8.92-9.53,12.08l13.62,13.25a22,22,0,0,0,4.83-13H49a30,30,0,0,1-6.5,16.15c3.08,2.52,6,4,8.85,4.33l-1.54,3.75c-4.56,0-7.78-2.52-10.73-5.17-3.89,3.17-8,5.11-15.3,5.17-9,0-14.62-4.33-14.62-11.82C9.14,202.39,14.17,198.83,19.4,195.15Zm2.62,3c-4,2.78-8,5.3-8,10.21s4.43,8.07,10.13,8.07,8.79-1.48,12.14-4.13ZM23.09,193c3.76-2.65,7.18-5.17,7.18-9.18,0-2.65-2-4.52-5.1-4.52a5.8,5.8,0,0,0-5.9,5.68C19.27,187.72,21,190.37,23.09,193Z"/><path class="cls-3" d="M33.93,54l25.26,66.88H50.84l-7-18.88H15L8,120.85H0L25.57,54Zm-4.54,9.24L17.53,96H41.25Z"/><path class="cls-3" d="M64.45,96V54.27h7.63V96c0,12.52,5.67,19.47,18.56,19.47s18.57-7,18.57-19.47V54.27h7.63V96c0,16.19-9.59,25.83-26.2,25.83S64.45,112.2,64.45,96Z"/><path class="cls-3" d="M151.38,60.63v60.22h-7.52V60.63H122.61V54.27h50v6.36Z"/><path class="cls-3" d="M207.28,53.28c18.87,0,28.87,9.93,28.87,32.79s-8.87,35.77-31.45,35.77c-18.87,0-28.36-10.43-28.36-33.29S184.49,53.28,207.28,53.28Zm-1.55,62.1c17,0,22.69-11.43,22.69-29.31,0-15.9-4.54-26.33-21.66-26.33C190,59.74,184.08,71,184.08,88.55,184.08,104.35,188.61,115.38,205.73,115.38Z"/><path class="cls-3" d="M282.66,120.85h-4.12L256.37,66.2l-3.61,54.65H245l4.64-66.58h9.8l21.35,52.67,20.93-52.67h9.79l4.64,66.58h-7.73L304.83,66.2Z"/><path class="cls-3" d="M356,53.28c18.87,0,28.88,9.93,28.88,32.79s-8.87,35.77-31.45,35.77c-18.88,0-28.36-10.43-28.36-33.29S333.19,53.28,356,53.28Zm-1.54,62.1c17,0,22.68-11.43,22.68-29.31,0-15.9-4.53-26.33-21.65-26.33-16.81,0-22.69,11.23-22.69,28.81C332.78,104.35,337.32,115.38,354.44,115.38Z"/><path class="cls-3" d="M417.34,60.63v60.22h-7.53V60.63H388.57V54.27h50v6.36Z"/><path class="cls-3" d="M452.92,54.27v66.58h-7.53V54.27Z"/><path class="cls-3" d="M484.48,121.14,459.21,54.27h8.25L488.6,111.9l21.66-57.63h8.25l-26.3,66.87Z"/><path class="cls-3" d="M532.33,83.09h25.78v6.46H532.33v24.94H564.6v6.36H524.8V54.27h39.39v6.36H532.33Z"/><path class="cls-3" d="M104.4,153.34l25.26,66.87h-8.35l-7-18.88H85.42l-6.91,18.88h-8L96,153.34Zm-4.54,9.24L88,195.37h23.72Z"/><path class="cls-3" d="M154,220.51l-25.27-66.88H137l21.14,57.64,21.66-57.64H188l-26.3,66.88Z"/><path class="cls-3" d="M201.85,153.63v66.58h-7.53V153.63Z"/><path class="cls-3" d="M242.07,153.34l25.26,66.87H259l-7-18.88H223.09l-6.91,18.88h-8l25.57-66.87Zm-4.54,9.24-11.86,32.79h23.72Z"/><path class="cls-3" d="M295.69,160v60.22h-7.53V160H266.92v-6.36h50V160Z"/><path class="cls-3" d="M331.27,153.63v66.58h-7.53V153.63Z"/><path class="cls-3" d="M372.62,152.64c18.87,0,28.87,9.94,28.87,32.79S392.62,221.2,370,221.2c-18.87,0-28.36-10.43-28.36-33.28S349.83,152.64,372.62,152.64Zm-1.55,62.1c17,0,22.69-11.42,22.69-29.31,0-15.9-4.54-26.33-21.66-26.33-16.8,0-22.68,11.23-22.68,28.82C349.42,203.71,354,214.74,371.07,214.74Z"/><path class="cls-3" d="M464.3,153.63v66.58h-8.77l-36.09-54.65v54.65h-7.53V153.63h8.77l36.09,54.66V153.63Z"/><path class="cls-3" d="M540.81,173.51c0,14.9-11.85,20.37-24.23,20.37H504v26.33h-7.53V153.63h21.14C533.08,153.63,540.81,161.09,540.81,173.51Zm-24.23,13.91c10.31,0,16.5-5.47,16.5-13.91,0-10.34-7.12-13.42-17.53-13.42H504v27.33Z"/><path class="cls-3" d="M576.19,153.34l25.26,66.87H593.1l-7-18.88H557.21l-6.91,18.88h-8l25.57-66.87Zm-4.54,9.24-11.86,32.79h23.72Z"/><path class="cls-3" d="M652.09,173c0,12.12-9.18,18-19.29,19.38l22.28,27.82h-9.8l-21.35-27.33h-8.66v27.33h-7.53V153.63h21.14C644.35,153.63,652.09,160.59,652.09,173Zm-24.24,13.42c10.31,0,16.5-5,16.5-13.42,0-10.33-7.11-12.92-17.53-12.92H615.27v26.34Z"/><path class="cls-3" d="M686.12,160v60.22h-7.53V160H657.35v-6.36h50V160Z"/><path class="cls-3" d="M713.14,211.27a61.87,61.87,0,0,0,18.66,3.47c9.9,0,15.37-4.47,15.37-11.92,0-8.45-7.32-11.33-16.09-13.71-11.86-3.18-19.69-7.26-19.69-18.48,0-11.43,9.69-18,22.58-18a54.25,54.25,0,0,1,17.84,3l-2.06,6.46a54.66,54.66,0,0,0-16.09-3c-8.25,0-14.64,3.28-14.64,10.23,0,8,7.42,10.84,16,13.32,12.48,3.58,19.9,8.74,19.9,19.18,0,12.42-10.1,19.37-23.2,19.37-9.08,0-16.09-1.79-20.62-4Z"/></g></g></svg>